<?xml version="1.0" encoding="UTF-8"?>
<svg width="770px" height="109px" viewBox="0 0 770 109" version="1.1" xmlns="http://www.w3.org/2000/svg" xmlns:xlink="http://www.w3.org/1999/xlink">
    <!-- Generator: Sketch 47.1 (45422) - http://www.bohemiancoding.com/sketch -->
    <title>SALLYAPP</title>
    <desc>Created with Sketch.</desc>
    <defs></defs>
    <g id="Page-1" stroke="none" stroke-width="1" fill="none" fill-rule="evenodd">
        <path d="M0.452,85.704 L25.076,69.864 C27.956,74.328 30.404,78.072 39.188,80.952 C43.364,82.392 48.548,83.256 53.444,83.256 C56.036,83.256 68.708,82.968 68.708,75.624 C68.708,74.904 68.708,71.16 63.092,69.288 C59.492,67.992 40.772,64.68 36.596,63.672 C27.236,61.224 8.948,55.464 8.948,34.008 C8.948,29.544 9.956,24.936 11.828,20.904 C18.452,5.928 35.588,0.024 53.876,0.024 C65.54,0.024 76.196,2.328 84.548,6.504 C92.18,10.248 95.924,14.28 99.524,18.024 L79.364,34.872 C77.78,32.856 76.052,30.552 71.588,28.248 C65.684,25.368 57.908,24.504 52.724,24.504 C47.252,24.504 41.204,25.944 41.204,31.128 C41.204,36.024 46.388,37.32 55.172,38.904 C77.78,42.792 100.244,46.824 100.244,72.024 C100.244,82.68 95.78,90.168 91.172,94.92 C78.356,108.024 57.908,108.024 52.292,108.024 C44.66,108.024 36.596,107.304 28.676,105 C12.548,100.392 5.06,91.32 0.452,85.704 Z M99.956,105 L138.836,3.336 L175.412,3.336 L213.428,105 L178.868,105 L174.404,90.888 L138.98,90.888 L134.516,105 L99.956,105 Z M167.78,68.136 L156.98,32.28 L145.892,68.136 L167.78,68.136 Z M220.484,105 L291.908,105 L291.908,79.368 L252.596,79.368 L252.596,3.192 L220.484,3.192 L220.484,105 Z M301.556,105 L301.556,3.192 L333.668,3.192 L333.668,79.368 L372.98,79.368 L372.98,105 L301.556,105 Z M351.956,3.336 L389.108,3.336 L408.98,37.176 L428.564,3.336 L465.86,3.336 L424.82,62.232 L424.82,105 L392.708,105 L392.708,62.232 L351.956,3.336 Z M448.436,105 L487.316,3.336 L523.892,3.336 L561.908,105 L527.348,105 L522.884,90.888 L487.46,90.888 L482.996,105 L448.436,105 Z M516.26,68.136 L505.46,32.28 L494.372,68.136 L516.26,68.136 Z M568.964,105 L568.964,3.192 L627.14,3.192 C638.228,3.624 647.876,4.2 656.084,12.696 C663.572,20.616 664.58,29.976 664.58,36.456 C664.58,44.952 662.852,54.168 654.932,62.376 C646.436,71.16 637.076,71.592 625.988,71.88 L601.22,71.88 L601.22,105 L568.964,105 Z M619.364,24.648 L601.22,24.648 L601.22,50.568 L619.652,50.568 C621.38,50.424 623.252,50.424 624.98,49.848 C629.876,48.264 632.756,43.656 632.756,37.464 C632.756,25.512 623.396,24.936 619.364,24.648 Z M673.94,105 L673.94,3.192 L732.116,3.192 C743.204,3.624 752.852,4.2 761.06,12.696 C768.548,20.616 769.556,29.976 769.556,36.456 C769.556,44.952 767.828,54.168 759.908,62.376 C751.412,71.16 742.052,71.592 730.964,71.88 L706.196,71.88 L706.196,105 L673.94,105 Z M724.34,24.648 L706.196,24.648 L706.196,50.568 L724.628,50.568 C726.356,50.424 728.228,50.424 729.956,49.848 C734.852,48.264 737.732,43.656 737.732,37.464 C737.732,25.512 728.372,24.936 724.34,24.648 Z" id="SALLYAPP" fill="#2F2F2F"></path>
    </g>
</svg>