<?xml version="1.0" encoding="UTF-8"?>
<svg width="625px" height="130px" viewBox="0 0 625 130" version="1.1" xmlns="http://www.w3.org/2000/svg" xmlns:xlink="http://www.w3.org/1999/xlink">
    <!-- Generator: Sketch 47.1 (45422) - http://www.bohemiancoding.com/sketch -->
    <title>sallyApp</title>
    <desc>Created with Sketch.</desc>
    <defs></defs>
    <g id="Page-1" stroke="none" stroke-width="1" fill="none" fill-rule="evenodd">
        <path d="M-0.06,89.904 C6.276,95.088 18.516,104.88 39.828,104.88 C63.012,104.88 75.252,91.92 75.252,77.232 C75.252,68.736 71.076,61.824 63.588,57.792 C59.988,55.92 56.82,55.2 43.572,52.176 C33.636,49.728 31.62,49.296 31.62,46.56 C31.62,42.672 36.804,42.672 37.956,42.672 C45.876,42.672 52.068,46.56 57.108,49.728 L73.092,35.184 C68.916,32.016 64.596,28.848 54.372,26.4 C48.756,25.104 43.14,24.384 37.524,24.384 C32.628,24.384 19.956,24.672 11.172,33.024 C6.708,37.344 3.684,43.392 3.684,50.016 C3.684,65.856 17.364,69.888 24.276,71.904 C31.044,73.92 37.236,74.928 39.828,75.36 C42.852,75.792 47.316,76.512 47.316,80.256 C47.316,83.568 43.14,84.864 39.54,84.864 C37.092,84.864 33.06,84.576 27.732,82.416 C21.972,79.968 19.236,77.52 16.5,74.784 L-0.06,89.904 Z M111.108,49.152 L83.316,49.872 C84.468,43.536 86.052,35.616 96.708,30 C105.06,25.68 115.716,24.96 123.492,24.96 C158.916,24.96 158.916,43.248 158.916,52.176 L158.916,92.784 C158.916,97.68 159.348,98.976 161.508,102 L132.276,102 L132.276,96.24 C128.532,98.832 121.62,103.728 107.652,103.728 C88.932,103.728 80.724,92.352 80.724,79.68 C80.724,75.216 81.732,69.024 87.06,63.696 C93.828,56.784 101.892,55.632 114.996,53.904 C123.204,52.752 126.372,52.032 130.836,50.736 C130.692,45.696 129.252,42.24 120.756,42.24 C113.988,42.24 112.116,43.968 111.108,49.152 Z M130.692,67.296 C127.812,68.304 124.932,69.312 121.908,70.176 C119.46,70.752 116.868,71.328 114.276,72.192 C108.516,74.496 108.228,77.952 108.228,78.816 C108.228,80.832 109.956,84.576 115.572,84.576 C119.748,84.576 126.66,81.84 129.252,76.08 C130.692,72.912 130.692,69.888 130.692,67.296 Z M170.868,102 L200.676,102 L200.676,0.336 L170.868,0.336 L170.868,102 Z M212.916,102 L242.724,102 L242.724,0.336 L212.916,0.336 L212.916,102 Z M272.676,95.952 C273.252,97.68 274.98,102.288 274.98,103.584 C274.98,106.32 272.676,107.184 268.644,107.184 C265.908,107.184 262.74,106.896 260.292,106.752 L260.292,127.92 C266.196,128.64 269.364,128.928 275.988,128.928 C285.204,128.928 290.388,128.784 296.724,122.592 C301.476,117.984 303.492,111.936 305.508,106.32 L332.724,27.408 L301.908,27.408 L294.42,58.656 C292.692,67.296 292.116,69.744 290.82,81.408 C289.38,70.32 288.948,68.304 287.364,59.52 L280.02,27.408 L249.06,27.408 L272.676,95.952 Z M332.868,102 L371.748,0.336 L408.324,0.336 L446.34,102 L411.78,102 L407.316,87.888 L371.892,87.888 L367.428,102 L332.868,102 Z M400.692,65.136 L389.892,29.28 L378.804,65.136 L400.692,65.136 Z M481.908,27.408 L481.908,33.168 C484.068,30.864 488.964,25.392 501.78,25.392 C525.828,25.392 534.324,45.552 534.324,65.136 C534.324,86.88 523.956,103.872 501.492,103.872 C489.396,103.872 484.644,99.264 482.196,96.96 L482.196,129.072 L452.964,129.072 L452.964,27.408 L481.908,27.408 Z M494.004,46.992 C491.124,46.848 488.1,48 486.084,50.016 C481.764,54.048 481.764,60.816 481.764,64.992 C481.764,68.448 481.908,71.904 483.06,75.216 C485.796,82.992 492.132,82.992 493.284,82.992 C496.164,82.992 499.044,81.84 500.916,79.824 C503.508,77.088 505.092,72.48 505.092,65.568 C505.092,59.664 504.516,47.28 494.004,46.992 Z M571.908,27.408 L571.908,33.168 C574.068,30.864 578.964,25.392 591.78,25.392 C615.828,25.392 624.324,45.552 624.324,65.136 C624.324,86.88 613.956,103.872 591.492,103.872 C579.396,103.872 574.644,99.264 572.196,96.96 L572.196,129.072 L542.964,129.072 L542.964,27.408 L571.908,27.408 Z M584.004,46.992 C581.124,46.848 578.1,48 576.084,50.016 C571.764,54.048 571.764,60.816 571.764,64.992 C571.764,68.448 571.908,71.904 573.06,75.216 C575.796,82.992 582.132,82.992 583.284,82.992 C586.164,82.992 589.044,81.84 590.916,79.824 C593.508,77.088 595.092,72.48 595.092,65.568 C595.092,59.664 594.516,47.28 584.004,46.992 Z" id="sallyApp" fill="#2F2F2F"></path>
    </g>
</svg>